<svg xmlns="http://www.w3.org/2000/svg" xmlns:xlink="http://www.w3.org/1999/xlink" version="1.1" x="0px" y="0px" viewBox="0 0 28 38.75" style="enable-background:new 0 0 28 31;" xml:space="preserve"><path d="M1,29c0,1.104,0.896,2,2,2h22c1.104,0,2-0.896,2-2V11H1V29z M21,14c0-0.553,0.447-1,1-1h2c0.553,0,1,0.447,1,1v2  c0,0.553-0.447,1-1,1h-2c-0.553,0-1-0.447-1-1V14z M21,20c0-0.553,0.447-1,1-1h2c0.553,0,1,0.447,1,1v2c0,0.553-0.447,1-1,1h-2  c-0.553,0-1-0.447-1-1V20z M21,26c0-0.553,0.447-1,1-1h2c0.553,0,1,0.447,1,1v2c0,0.553-0.447,1-1,1h-2c-0.553,0-1-0.447-1-1V26z   M15,14c0-0.553,0.447-1,1-1h2c0.553,0,1,0.447,1,1v2c0,0.553-0.447,1-1,1h-2c-0.553,0-1-0.447-1-1V14z M15,20c0-0.553,0.447-1,1-1  h2c0.553,0,1,0.447,1,1v2c0,0.553-0.447,1-1,1h-2c-0.553,0-1-0.447-1-1V20z M15,26c0-0.553,0.447-1,1-1h2c0.553,0,1,0.447,1,1v2  c0,0.553-0.447,1-1,1h-2c-0.553,0-1-0.447-1-1V26z M9,14c0-0.553,0.447-1,1-1h2c0.553,0,1,0.447,1,1v2c0,0.553-0.447,1-1,1h-2  c-0.553,0-1-0.447-1-1V14z M9,20c0-0.553,0.447-1,1-1h2c0.553,0,1,0.447,1,1v2c0,0.553-0.447,1-1,1h-2c-0.553,0-1-0.447-1-1V20z   M9,26c0-0.553,0.447-1,1-1h2c0.553,0,1,0.447,1,1v2c0,0.553-0.447,1-1,1h-2c-0.553,0-1-0.447-1-1V26z M3,14c0-0.553,0.447-1,1-1h2  c0.553,0,1,0.447,1,1v2c0,0.553-0.447,1-1,1H4c-0.553,0-1-0.447-1-1V14z M3,20c0-0.553,0.447-1,1-1h2c0.553,0,1,0.447,1,1v2  c0,0.553-0.447,1-1,1H4c-0.553,0-1-0.447-1-1V20z M3,26c0-0.553,0.447-1,1-1h2c0.553,0,1,0.447,1,1v2c0,0.553-0.447,1-1,1H4  c-0.553,0-1-0.447-1-1V26z"/><path d="M26,5.001h-1V2c0-1.104-0.896-2-2-2s-2,0.896-2,2v3.001h-2V2c0-1.104-0.896-2-2-2s-2,0.896-2,2v3.001h-2V2  c0-1.104-0.896-2-2-2S9,0.896,9,2v3.001H7V2c0-1.104-0.896-2-2-2S3,0.896,3,2v3.001H2C0.896,5.001,0,5.896,0,7v1.002  c0,1.104,0.896,1.999,2,1.999h24c1.104,0,2-0.896,2-1.999V7C28,5.896,27.104,5.001,26,5.001z M4,2c0-0.552,0.448-1,1-1s1,0.448,1,1  v4c0,0.552-0.448,1-1,1S4,6.552,4,6V2z M10,2c0-0.552,0.448-1,1-1s1,0.448,1,1v4c0,0.552-0.448,1-1,1s-1-0.448-1-1V2z M16,2  c0-0.552,0.448-1,1-1s1,0.448,1,1v4c0,0.552-0.448,1-1,1s-1-0.448-1-1V2z M22,2c0-0.552,0.448-1,1-1s1,0.448,1,1v4  c0,0.552-0.448,1-1,1s-1-0.448-1-1V2z"/><text x="0" y="46" fill="#000000" font-size="5px" font-weight="bold" font-family="'Helvetica Neue', Helvetica, Arial-Unicode, Arial, Sans-serif">Created by Yo! Baba</text><text x="0" y="51" fill="#000000" font-size="5px" font-weight="bold" font-family="'Helvetica Neue', Helvetica, Arial-Unicode, Arial, Sans-serif">from the Noun Project</text></svg>