<svg xmlns="http://www.w3.org/2000/svg" version="1.1" viewBox="-5.0 -10.0 110.0 135.0">
 <g>
  <path d="m84.281 92.094c4.3125 0 7.8125-3.5 7.8125-7.8125v-26.125c0-3.5312-2.4062-6.5625-5.6562-7.5-0.65625-0.1875-1.375-0.3125-2.0938-0.3125h-1.0312l-32.688-0.25c-1.1562-0.03125-2.25-0.46875-3.125-1.25l-3.7188-3.4062c-1.4688-1.3438-3.4062-2.0625-5.375-2.0625l-21.719 0.25h-1.0625c-0.71875 0-1.4062 0.125-2.0625 0.3125-3.25 0.9375-5.6562 3.9688-5.6562 7.5v32.844c0 4.3125 3.5 7.8125 7.8125 7.8125zm-32.812-27.062h28.531c0.875 0 1.5625 0.6875 1.5625 1.5625s-0.6875 1.5625-1.5625 1.5625h-28.531c-0.875 0-1.5625-0.6875-1.5625-1.5625s0.6875-1.5625 1.5625-1.5625zm0 8.8125h28.531c0.875 0 1.5625 0.6875 1.5625 1.5625s-0.6875 1.5625-1.5625 1.5625h-28.531c-0.875 0-1.5625-0.6875-1.5625-1.5625s0.6875-1.5625 1.5625-1.5625zm-21.5-14.406c6.375 0 11.562 5.1875 11.562 11.562s-5.1875 11.562-11.562 11.562-11.531-5.1875-11.531-11.562 5.1875-11.562 11.531-11.562z"/>
  <path d="m16.688 40.5 21.688-0.25c2.8438 0 5.5 1.0312 7.5312 2.875l3.7188 3.4062c0.28125 0.28125 0.65625 0.4375 1.0938 0.4375l33.625 0.25c0.6875 0 1.375 0.09375 2.0938 0.25v-34.875c0-2.5938-2.0938-4.6875-4.6875-4.6875h-63.5c-2.5938 0-4.6875 2.0938-4.6875 4.6875v28.156c0.71875-0.15625 1.4062-0.25 2.0625-0.25zm34.719-24.125h23.625c0.875 0 1.5625 0.6875 1.5625 1.5625s-0.6875 1.5625-1.5625 1.5625h-23.625c-0.875 0-1.5625-0.6875-1.5625-1.5625s0.6875-1.5625 1.5625-1.5625zm0 9.8438h23.625c0.875 0 1.5625 0.6875 1.5625 1.5625s-0.6875 1.5625-1.5625 1.5625h-23.625c-0.875 0-1.5625-0.6875-1.5625-1.5625s0.6875-1.5625 1.5625-1.5625zm0 9.8438h23.625c0.875 0 1.5625 0.6875 1.5625 1.5625s-0.6875 1.5625-1.5625 1.5625h-23.625c-0.875 0-1.5625-0.6875-1.5625-1.5625s0.6875-1.5625 1.5625-1.5625zm-22.688-8.4062c-1.1562-1.1875-1.9062-2.8438-1.9062-4.6562 0-3.6562 2.9688-6.6562 6.6562-6.6562 3.6562 0 6.625 3 6.625 6.6562 0 1.7812-0.71875 3.4375-1.875 4.625 3.125 1.7188 5.2812 5.0312 5.2812 8.875 0 0.84375-0.6875 1.5625-1.5625 1.5625-0.84375 0-1.5625-0.71875-1.5625-1.5625 0-3.5625-2.6562-6.5-6.0938-6.9062h-0.09375c-0.25-0.03125-0.46875-0.03125-0.71875-0.03125s-0.46875 0-0.71875 0.03125h-0.09375c-3.4688 0.40625-6.125 3.3438-6.125 6.9062 0 0.84375-0.6875 1.5625-1.5625 1.5625s-1.5625-0.71875-1.5625-1.5625c0-3.8438 2.1562-7.1562 5.3125-8.8438z"/>
  <path d="m32.75 26.469h0.1875c0.1875 0.03125 0.3125 0.0625 0.53125 0.0625s0.34375-0.03125 0.53125-0.0625h0.1875c1.5938-0.34375 2.7812-1.7812 2.7812-3.4688 0-1.9375-1.5625-3.5312-3.5-3.5312s-3.5312 1.5938-3.5312 3.5312c0 1.6875 1.2188 3.125 2.8125 3.4688z"/>
  <path d="m29.969 79.438c4.6562 0 8.4375-3.7812 8.4375-8.4375s-3.7812-8.4375-8.4375-8.4375c-4.625 0-8.4062 3.7812-8.4062 8.4375s3.7812 8.4375 8.4062 8.4375zm-3.2188-10h1.6562v-1.6562c0-0.875 0.71875-1.5625 1.5625-1.5625 0.875 0 1.5625 0.6875 1.5625 1.5625v1.6562h1.6875c0.84375 0 1.5625 0.6875 1.5625 1.5625s-0.71875 1.5625-1.5625 1.5625h-1.6875v1.6562c0 0.875-0.6875 1.5625-1.5625 1.5625-0.84375 0-1.5625-0.6875-1.5625-1.5625v-1.6562h-1.6562c-0.875 0-1.5625-0.6875-1.5625-1.5625s0.6875-1.5625 1.5625-1.5625z"/>
 </g>
</svg>