<svg xmlns="http://www.w3.org/2000/svg" xmlns:xlink="http://www.w3.org/1999/xlink" xmlns:serif="http://www.serif.com/" viewBox="0 0 101 126.25" version="1.1" xml:space="preserve" style="" x="0px" y="0px" fill-rule="evenodd" clip-rule="evenodd" stroke-linejoin="round" stroke-miterlimit="2"><path d="M75.996,52.492c12.973,-0 23.504,10.532 23.504,23.504c0,12.972 -10.531,23.504 -23.504,23.504c-12.972,-0 -23.503,-10.532 -23.503,-23.504c0,-12.972 10.531,-23.504 23.503,-23.504Zm-27.488,9.974c0,-2.645 -1.051,-5.182 -2.922,-7.052c-1.87,-1.871 -4.407,-2.922 -7.052,-2.922l-27.06,-0c-2.645,-0 -5.182,1.051 -7.053,2.922c-1.87,1.87 -2.921,4.407 -2.921,7.052l0,27.06c0,2.645 1.051,5.182 2.921,7.052c1.871,1.871 4.408,2.922 7.053,2.922l27.06,-0c2.645,-0 5.182,-1.051 7.052,-2.922c1.871,-1.87 2.922,-4.407 2.922,-7.052l0,-27.06Zm50.992,-50.992c0,-2.646 -1.051,-5.183 -2.921,-7.053c-1.871,-1.871 -4.407,-2.921 -7.053,-2.921l-27.059,-0c-2.646,-0 -5.182,1.05 -7.053,2.921c-1.87,1.87 -2.921,4.407 -2.921,7.053l0,27.059c0,2.645 1.051,5.182 2.921,7.053c1.871,1.87 4.407,2.921 7.053,2.921l27.059,0c2.646,0 5.182,-1.051 7.053,-2.921c1.87,-1.871 2.921,-4.408 2.921,-7.053l0,-27.059Zm-50.992,-0c0,-2.646 -1.051,-5.183 -2.922,-7.053c-1.87,-1.871 -4.407,-2.921 -7.052,-2.921l-27.06,-0c-2.645,-0 -5.182,1.05 -7.053,2.921c-1.87,1.87 -2.921,4.407 -2.921,7.053l0,27.059c0,2.645 1.051,5.182 2.921,7.053c1.871,1.87 4.408,2.921 7.053,2.921l27.06,0c2.645,0 5.182,-1.051 7.052,-2.921c1.871,-1.871 2.922,-4.408 2.922,-7.053l0,-27.059Z"/></svg>