<svg xmlns="http://www.w3.org/2000/svg" data-name="Layer 1" viewBox="0 0 100 125" x="0px" y="0px"><path d="M77.6,63.27a1.046,1.046,0,0,1-.917-1.039V60.422a.932.932,0,0,0-1.863,0v1.809A1.047,1.047,0,0,1,73.9,63.27a5.162,5.162,0,0,0-4.517,5.113,5.526,5.526,0,0,0,2.23,4.423l7.165,5.308a3.657,3.657,0,0,1,1.473,2.927,3.3,3.3,0,0,1-3.294,3.3H74.542a3.3,3.3,0,0,1-3.3-3.3V79.9a.932.932,0,0,0-1.863,0v1.141A5.161,5.161,0,0,0,73.9,86.153a1.047,1.047,0,0,1,.918,1.039V89a.932.932,0,0,0,1.863,0V87.192a1.047,1.047,0,0,1,.917-1.039,5.16,5.16,0,0,0,4.516-5.112,5.527,5.527,0,0,0-2.229-4.424l-7.165-5.308a3.657,3.657,0,0,1-1.474-2.926,3.3,3.3,0,0,1,3.3-3.3h2.416a3.3,3.3,0,0,1,3.294,3.3v1.14a.932.932,0,1,0,1.863,0v-1.14A5.161,5.161,0,0,0,77.6,63.27Z"/><path d="M75.75,55.961A18.751,18.751,0,1,0,94.5,74.711,18.772,18.772,0,0,0,75.75,55.961Zm8.459,13.562a3.026,3.026,0,1,1-6.051,0v-1.14a1.2,1.2,0,0,0-1.2-1.2H74.542a1.2,1.2,0,0,0-1.2,1.2,1.549,1.549,0,0,0,.627,1.243l7.166,5.308a7.635,7.635,0,0,1,3.075,6.107,7.26,7.26,0,0,1-5.433,7.015V89a3.026,3.026,0,0,1-6.052,0v-.945a7.26,7.26,0,0,1-5.434-7.015V79.9a3.026,3.026,0,0,1,6.051,0v1.141a1.2,1.2,0,0,0,1.2,1.2h2.416a1.2,1.2,0,0,0,1.2-1.2,1.554,1.554,0,0,0-.626-1.244l-7.164-5.308a7.628,7.628,0,0,1-3.078-6.106,7.261,7.261,0,0,1,5.434-7.016v-.945a3.026,3.026,0,0,1,6.052,0v.945a7.261,7.261,0,0,1,5.433,7.016Z"/><path d="M28.517,82.9a1.046,1.046,0,0,1-1.047-1.046V18.484a1.046,1.046,0,0,1,1.047-1.047h9.289V12.9H28.517a5.586,5.586,0,0,0-5.58,5.581V81.853a5.586,5.586,0,0,0,5.58,5.579H59.274A20.854,20.854,0,0,1,56.585,82.9Z"/><path d="M37.992,19.531H29.564V80.805H55.819a20.793,20.793,0,0,1,1.618-16.041H51.28a1.047,1.047,0,0,1,0-2.094h7.486a20.969,20.969,0,0,1,2.176-2.607H51.28a1.047,1.047,0,1,1,0-2.094H63.386a20.708,20.708,0,0,1,9.684-3.91V19.531H64.637a2.834,2.834,0,0,1-2.651,1.854H40.643A2.834,2.834,0,0,1,37.992,19.531ZM63.974,31.1H51.281a1.048,1.048,0,0,1,0-2.095H63.974a3.4,3.4,0,1,1,0,6.8H51.281a1.047,1.047,0,1,1,0-2.094H63.974a1.306,1.306,0,1,0,0-2.611Zm0,14.482H51.281a1.048,1.048,0,0,1,0-2.1H63.974a3.4,3.4,0,1,1,0,6.8H51.281a1.047,1.047,0,0,1,0-2.094H63.974a1.306,1.306,0,1,0,0-2.612ZM46.894,63.753a3.437,3.437,0,0,1-3.434,3.433H38.688a3.437,3.437,0,0,1-3.434-3.433V58.98a3.437,3.437,0,0,1,3.434-3.433H43.46a1.047,1.047,0,0,1,0,2.094H38.688a1.341,1.341,0,0,0-1.34,1.339v4.773a1.341,1.341,0,0,0,1.34,1.338H43.46A1.34,1.34,0,0,0,44.8,63.753V58.98a1.048,1.048,0,0,1,2.095,0Zm0-14.483A3.437,3.437,0,0,1,43.46,52.7H38.688a3.437,3.437,0,0,1-3.434-3.434V44.5a3.437,3.437,0,0,1,3.434-3.434H43.46a1.047,1.047,0,0,1,0,2.094H38.688a1.343,1.343,0,0,0-1.34,1.34V49.27a1.342,1.342,0,0,0,1.34,1.339H43.46A1.341,1.341,0,0,0,44.8,49.27V44.5a1.048,1.048,0,0,1,2.095,0ZM43.46,26.582a1.047,1.047,0,0,1,0,2.094H38.688a1.342,1.342,0,0,0-1.34,1.339v4.772a1.342,1.342,0,0,0,1.34,1.339H43.46A1.341,1.341,0,0,0,44.8,34.787V32.41l-2.852,2.852a1.047,1.047,0,0,1-1.481,0l-2.121-2.12a1.047,1.047,0,1,1,1.481-1.481l1.38,1.381,6.12-6.12a1.047,1.047,0,1,1,1.481,1.48l-1.913,1.913v4.472a3.437,3.437,0,0,1-3.434,3.434H38.688a3.437,3.437,0,0,1-3.434-3.434V30.015a3.437,3.437,0,0,1,3.434-3.433Z"/><path d="M10.032,30.234A.761.761,0,0,0,9.278,31v1.88h7.45V31a.756.756,0,0,0-.764-.765H10.032Z"/><path d="M5.5,35.8V54.4a1.047,1.047,0,0,0,2.094,0V38.181h10.2V34.973H6.325A.826.826,0,0,0,5.5,35.8Z"/><path d="M51.314,6.538A2.668,2.668,0,0,0,48.649,9.2v.53A1.046,1.046,0,0,1,47.6,10.78H40.643a.744.744,0,0,0-.742.743v7.025a.744.744,0,0,0,.742.743H61.986a.744.744,0,0,0,.742-.743V18.5l0-.015,0-.015v-6.6l0-.015,0-.015v-.318a.744.744,0,0,0-.742-.743h-6.96a1.046,1.046,0,0,1-1.047-1.047V9.2A2.668,2.668,0,0,0,51.314,6.538Z"/><path d="M75.75,53.867a20.881,20.881,0,0,1,3.948.386V18.484A5.587,5.587,0,0,0,74.117,12.9h-9.3v4.534h9.3a1.046,1.046,0,0,1,1.047,1.047V53.9C75.361,53.891,75.552,53.867,75.75,53.867Z"/><path d="M13,22.346a1.738,1.738,0,0,0-1.736,1.737V28.14H14.74V24.083A1.739,1.739,0,0,0,13,22.346Z"/><rect x="9.278" y="71.594" width="7.45" height="3.473"/><polygon points="9.278 81.51 13.003 86.683 16.728 81.51 16.728 77.161 9.278 77.161 9.278 81.51"/><rect x="9.278" y="40.275" width="7.45" height="29.225"/></svg>