<svg xmlns="http://www.w3.org/2000/svg" xmlns:xlink="http://www.w3.org/1999/xlink" version="1.1" x="0px" y="0px" viewBox="0 0 100 125" style="enable-background:new 0 0 100 100;" xml:space="preserve"><style type="text/css">
	.st0{display:none;}
	.st1{display:inline;}
</style><g><path d="M76.5,37c-7.5-0.4-14.7,3.8-18.2,10.4c0,0-0.1,0-0.1,0c-2.5-1-5.2-1.5-8.1-1.5c-2.8,0-5.5,0.4-8.1,1.4   c-0.1,0-0.3,0.1-0.4,0.2C38.2,40.8,31,36.7,23.5,37C13.1,37.6,5,46.4,5,57.2v11.3C5,71,7,73,9.5,73H26c0,0,0,8,0,10c0,4,2,5,4,5   h39.4c0,0,0.1,0,0.1,0c3.5,0,4.5-1,4.5-4.5V73h16.5c2.5,0,4.5-2,4.5-4.5V57.2C95,46.4,86.9,37.6,76.5,37z M28.2,59.7   c-0.3,0.5-0.5,1.1-0.7,1.7c-0.1,0.3-0.2,0.6-0.3,0.9c-0.3,0.9-0.5,1.8-0.7,2.7c-0.3,1.5-0.5,3.1-0.5,4.8l0,0.2H9.5   C8.7,70,8,69.3,8,68.5V57.2c0-9,7-16.8,15.6-17.2c0.3,0,0.6,0,0.8,0c6,0,11.6,3.4,14.4,8.6c-0.2,0.1-0.4,0.2-0.6,0.4   c-0.4,0.2-0.7,0.4-1.1,0.6c-0.4,0.3-0.9,0.6-1.3,0.9c-0.3,0.2-0.7,0.5-1,0.7c-0.4,0.3-0.8,0.7-1.1,1c-0.3,0.3-0.6,0.5-0.9,0.8   c-0.4,0.4-0.7,0.7-1,1.1c-0.3,0.3-0.5,0.6-0.8,0.9c-0.3,0.4-0.6,0.8-0.9,1.3c-0.2,0.3-0.4,0.6-0.7,1c-0.3,0.5-0.5,0.9-0.8,1.4   C28.6,59.1,28.4,59.4,28.2,59.7z M71,84c0,0.8-1,1-1.5,1H30.5c0,0-0.8-0.4-1.1-0.6c-0.3-0.3-0.4-0.7-0.5-1.1V73c0.1,0,0-1,0-1   s0-3,0-4c0-5,5.7-15.5,15-18.2c2.3-0.6,4.1-0.8,6.4-0.8c2.5,0,4.9,0.4,7.2,1.3c0.4,0.1,0.7,0.3,1.2,0.5c6.1,2.7,10.6,8.3,11.9,15.1   c0.3,1.4,0.4,2.8,0.4,4.2V84z M92,68.5c0,0.8-0.7,1.5-1.5,1.5H74c0-1.6-0.1-3.2-0.4-4.8c-0.2-0.9-0.4-1.8-0.7-2.7   c-0.1-0.3-0.2-0.6-0.3-0.9c-0.2-0.6-0.4-1.2-0.7-1.7c-0.2-0.4-0.4-0.7-0.5-1c-0.2-0.5-0.5-1-0.8-1.4c-0.2-0.4-0.5-0.7-0.7-1   c-0.3-0.4-0.6-0.8-0.9-1.2c-0.3-0.3-0.6-0.7-0.9-1c-0.3-0.4-0.6-0.7-1-1.1c-0.3-0.3-0.7-0.6-1-0.9c-0.3-0.3-0.7-0.6-1.1-0.9   c-0.4-0.3-0.7-0.6-1.1-0.8c-0.4-0.3-0.8-0.5-1.2-0.8c-0.4-0.2-0.8-0.5-1.1-0.7c-0.2-0.1-0.4-0.2-0.6-0.4c3-5.5,9-8.9,15.3-8.6   C85,40.5,92,48.2,92,57.2V68.5z"/><path d="M75.5,33.5C81.3,33.5,86,28.8,86,23s-4.7-10.5-10.5-10.5S65,17.2,65,23S69.7,33.5,75.5,33.5z M75.5,15.5   c4.1,0,7.5,3.4,7.5,7.5s-3.4,7.5-7.5,7.5S68,27.1,68,23S71.4,15.5,75.5,15.5z"/><path d="M50,42.5c8.3,0,15-6.7,15-15s-6.7-15-15-15s-15,6.7-15,15S41.7,42.5,50,42.5z M50,15.5c6.6,0,12,5.4,12,12s-5.4,12-12,12   s-12-5.4-12-12S43.4,15.5,50,15.5z"/><path d="M24.5,33.5C30.3,33.5,35,28.8,35,23s-4.7-10.5-10.5-10.5S14,17.2,14,23S18.7,33.5,24.5,33.5z M24.5,15.5   c4.1,0,7.5,3.4,7.5,7.5s-3.4,7.5-7.5,7.5S17,27.1,17,23S20.4,15.5,24.5,15.5z"/></g></svg>