<svg width="19" height="21" viewBox="0 0 19 21" fill="none" xmlns="http://www.w3.org/2000/svg"> <path fill-rule="evenodd" clip-rule="evenodd" d="M9.41253 13.3875H13.2625C13.7919 13.3875 14.225 13.8206 14.225 14.35C14.225 14.8794 13.7919 15.3125 13.2625 15.3125H9.41253C8.88315 15.3125 8.45003 14.8794 8.45003 14.35C8.45003 13.8206 8.88315 13.3875 9.41253 13.3875ZM4.60002 14.35C4.60002 13.8206 5.03315 13.3875 5.56252 13.3875C6.0919 13.3875 6.52502 13.8206 6.52502 14.35C6.52502 14.8794 6.0919 15.3125 5.56252 15.3125C5.03315 15.3125 4.60002 14.8794 4.60002 14.35ZM15.1875 18.2H3.63751C3.10717 18.2 2.67501 17.7678 2.67501 17.2375V11.4625H16.15V17.2375C16.15 17.7678 15.7178 18.2 15.1875 18.2ZM3.63751 4.725H4.60001V5.6875C4.60001 6.21688 5.03314 6.65 5.56251 6.65C6.09189 6.65 6.52501 6.21688 6.52501 5.6875V4.725H12.3V5.6875C12.3 6.21688 12.7331 6.65 13.2625 6.65C13.7919 6.65 14.225 6.21688 14.225 5.6875V4.725H15.1875C15.7178 4.725 16.15 5.15716 16.15 5.6875V9.5375H2.67501V5.6875C2.67501 5.15716 3.10717 4.725 3.63751 4.725ZM15.1875 2.8H14.225V1.8375C14.225 1.30813 13.7919 0.875 13.2625 0.875C12.7331 0.875 12.3 1.30813 12.3 1.8375V2.8H6.525V1.8375C6.525 1.30813 6.09188 0.875 5.5625 0.875C5.03312 0.875 4.6 1.30813 4.6 1.8375V2.8H3.6375C2.04552 2.8 0.75 4.09553 0.75 5.6875V17.2375C0.75 18.8295 2.04552 20.125 3.6375 20.125H15.1875C16.7795 20.125 18.075 18.8295 18.075 17.2375V5.6875C18.075 4.09553 16.7795 2.8 15.1875 2.8Z" /></svg>