<svg width="21" height="21" viewBox="0 0 21 21" fill="none" xmlns="http://www.w3.org/2000/svg">
    <path fill-rule="evenodd" clip-rule="evenodd" d="M5.30251 2.8C3.92229 2.8 2.80001 3.92227 2.80001 5.3025C2.80001 12.4134 8.5856 18.2 15.6975 18.2C17.0768 18.2 18.2 17.0777 18.2 15.6975C18.2 15.5907 18.1933 15.4857 18.1798 15.3818L13.733 14.3615C13.6445 14.5309 13.5473 14.7148 13.4587 14.8861C13.0198 15.7235 12.7022 16.3318 11.8918 16.0055C8.70976 14.889 6.11197 12.2902 4.98104 9.06972C4.63742 8.31416 5.29192 7.97151 6.1216 7.53838C6.29004 7.44983 6.47195 7.35455 6.63846 7.26792L5.61821 2.82021C5.51137 2.80673 5.40742 2.8 5.30251 2.8ZM15.6975 20.125C7.52395 20.125 0.875 13.476 0.875 5.3025C0.875 2.86064 2.86064 0.875 5.3025 0.875C5.55275 0.875 5.80011 0.896175 6.03977 0.937563C6.27366 0.9751 6.50851 1.03478 6.73759 1.1137C7.0504 1.22246 7.28621 1.48523 7.36032 1.80863L8.67799 7.54897C8.75114 7.86468 8.6597 8.19578 8.43447 8.43062C8.30357 8.5673 8.30069 8.57019 7.10719 9.19485C8.07354 11.2873 9.7531 12.9611 11.8032 13.8947C12.4289 12.7003 12.4327 12.6964 12.5694 12.5655C12.8042 12.3403 13.1372 12.2527 13.451 12.322L19.1923 13.6397C19.5148 13.7138 19.7775 13.9486 19.8853 14.2615C19.9643 14.4886 20.0239 14.7234 20.0634 14.965C20.1038 15.2028 20.125 15.4492 20.125 15.6975C20.125 18.1394 18.1384 20.125 15.6975 20.125Z"/>
</svg>
